<svg width="58" height="10" viewBox="0 0 58 10" fill="none" xmlns="http://www.w3.org/2000/svg">
<path d="M5 0.750092L6.52963 3.35805L9.5 3.9968L7.475 6.24736L7.78115 9.25009L5 8.03305L2.21885 9.25009L2.525 6.24736L0.5 3.9968L3.47037 3.35805L5 0.750092Z" fill="#FFCB45"/>
<path d="M17 0.750092L18.5296 3.35805L21.5 3.9968L19.475 6.24736L19.7812 9.25009L17 8.03305L14.2188 9.25009L14.525 6.24736L12.5 3.9968L15.4704 3.35805L17 0.750092Z" fill="#FFCB45"/>
<path d="M29 0.750092L30.5296 3.35805L33.5 3.9968L31.475 6.24736L31.7812 9.25009L29 8.03305L26.2188 9.25009L26.525 6.24736L24.5 3.9968L27.4704 3.35805L29 0.750092Z" fill="#FFCB45"/>
<path d="M41 0.750092L42.5296 3.35805L45.5 3.9968L43.475 6.24736L43.7812 9.25009L41 8.03305L38.2188 9.25009L38.525 6.24736L36.5 3.9968L39.4704 3.35805L41 0.750092Z" fill="#FFCB45"/>
<path d="M53 0.750092L54.5296 3.35805L57.5 3.9968L55.475 6.24736L55.7812 9.25009L53 8.03305L50.2188 9.25009L50.525 6.24736L48.5 3.9968L51.4704 3.35805L53 0.750092Z" fill="#FFCB45"/>
</svg>
